<mxfile host="65bd71144e">
    <diagram id="40Mm8pYU9viyJwDY62Pg" name="Page-1">
        <mxGraphModel dx="951" dy="706" grid="1" gridSize="10" guides="1" tooltips="1" connect="1" arrows="1" fold="1" page="1" pageScale="1" pageWidth="850" pageHeight="1100" math="0" shadow="0">
            <root>
                <mxCell id="0"/>
                <mxCell id="1" parent="0"/>
                <mxCell id="17" value="Buff Create and Initialize Timeline" style="swimlane;whiteSpace=wrap;html=1;rounded=0;fontFamily=Helvetica;fontSize=12;labelBackgroundColor=none;labelBorderColor=none;shadow=0;" parent="1" vertex="1">
                    <mxGeometry x="90" y="50" width="957.09" height="300" as="geometry"/>
                </mxCell>
                <mxCell id="19" value="" style="rounded=0;whiteSpace=wrap;html=1;strokeColor=default;fontFamily=Helvetica;fontSize=12;fontColor=default;fillColor=default;" parent="17" vertex="1">
                    <mxGeometry y="20" width="957.09" height="280" as="geometry"/>
                </mxCell>
                <mxCell id="2" value="ActionAddBuff" style="rounded=0;whiteSpace=wrap;html=1;" parent="17" vertex="1">
                    <mxGeometry x="30" y="40" width="880" height="30" as="geometry"/>
                </mxCell>
                <mxCell id="4" value="CreateBuffAndApply" style="rounded=0;whiteSpace=wrap;html=1;" parent="17" vertex="1">
                    <mxGeometry x="30" y="70" width="880" height="30" as="geometry"/>
                </mxCell>
                <mxCell id="5" value="BuffService:CreateBuff" style="rounded=0;whiteSpace=wrap;html=1;strokeColor=default;fontFamily=Helvetica;fontSize=12;fontColor=default;fillColor=default;" parent="17" vertex="1">
                    <mxGeometry x="30" y="100" width="270" height="30" as="geometry"/>
                </mxCell>
                <mxCell id="6" value="BuffService:CreateBuffById" style="rounded=0;whiteSpace=wrap;html=1;strokeColor=default;fontFamily=Helvetica;fontSize=12;fontColor=default;fillColor=default;" parent="17" vertex="1">
                    <mxGeometry x="30" y="130" width="270" height="30" as="geometry"/>
                </mxCell>
                <mxCell id="7" value="BuffBase:InitBuff" style="rounded=0;whiteSpace=wrap;html=1;strokeColor=default;fontFamily=Helvetica;fontSize=12;fontColor=default;fillColor=default;" parent="17" vertex="1">
                    <mxGeometry x="30" y="160" width="270" height="30" as="geometry"/>
                </mxCell>
                <mxCell id="8" value="Initialize buff with given lua script" style="text;html=1;strokeColor=none;fillColor=none;align=center;verticalAlign=middle;whiteSpace=wrap;rounded=0;fontFamily=Helvetica;fontSize=12;fontColor=default;" parent="17" vertex="1">
                    <mxGeometry x="60" y="250" width="230" height="30" as="geometry"/>
                </mxCell>
                <mxCell id="9" value="BuffLogicBase:OnInit" style="rounded=0;whiteSpace=wrap;html=1;strokeColor=#6c8ebf;fontFamily=Helvetica;fontSize=12;fillColor=#dae8fc;" parent="17" vertex="1">
                    <mxGeometry x="30" y="190" width="270" height="30" as="geometry"/>
                </mxCell>
                <mxCell id="10" value="BuffBase:SetDuration" style="rounded=0;whiteSpace=wrap;html=1;strokeColor=default;fontFamily=Helvetica;fontSize=12;fontColor=default;fillColor=default;" parent="17" vertex="1">
                    <mxGeometry x="300" y="100" width="190" height="30" as="geometry"/>
                </mxCell>
                <mxCell id="11" value="BuffBase:SetupArgument" style="rounded=0;whiteSpace=wrap;html=1;strokeColor=default;fontFamily=Helvetica;fontSize=12;fontColor=default;fillColor=default;" parent="17" vertex="1">
                    <mxGeometry x="490" y="100" width="210" height="30" as="geometry"/>
                </mxCell>
                <mxCell id="12" value="BuffLogicBase:SetupArgument" style="rounded=0;whiteSpace=wrap;html=1;fontFamily=Helvetica;fontSize=12;" parent="17" vertex="1">
                    <mxGeometry x="490" y="130" width="210" height="30" as="geometry"/>
                </mxCell>
                <mxCell id="13" value="BuffManagerComponent:AddBuff" style="rounded=0;whiteSpace=wrap;html=1;strokeColor=default;fontFamily=Helvetica;fontSize=12;fontColor=default;fillColor=default;" parent="17" vertex="1">
                    <mxGeometry x="700" y="100" width="210" height="30" as="geometry"/>
                </mxCell>
                <mxCell id="14" value="BuffBase:ApplyScript" style="rounded=0;whiteSpace=wrap;html=1;strokeColor=default;fontFamily=Helvetica;fontSize=12;fontColor=default;fillColor=default;" parent="17" vertex="1">
                    <mxGeometry x="700" y="130" width="210" height="30" as="geometry"/>
                </mxCell>
                <mxCell id="15" value="BuffLogicBase:OnApply" style="rounded=0;whiteSpace=wrap;html=1;strokeColor=#6c8ebf;fontFamily=Helvetica;fontSize=12;fillColor=#dae8fc;" parent="17" vertex="1">
                    <mxGeometry x="700" y="160" width="210" height="30" as="geometry"/>
                </mxCell>
                <mxCell id="16" value="BuffLogicBase._BuffArgs get values." style="text;html=1;align=center;verticalAlign=middle;resizable=0;points=[];autosize=1;strokeColor=none;fillColor=none;fontSize=12;fontFamily=Helvetica;fontColor=default;" parent="17" vertex="1">
                    <mxGeometry x="490" y="250" width="220" height="30" as="geometry"/>
                </mxCell>
                <mxCell id="20" value="XXXBuff:OnSetupArgument" style="rounded=0;whiteSpace=wrap;html=1;fontFamily=Helvetica;fontSize=12;fillColor=#dae8fc;strokeColor=#6c8ebf;" vertex="1" parent="17">
                    <mxGeometry x="490" y="160" width="210" height="30" as="geometry"/>
                </mxCell>
            </root>
        </mxGraphModel>
    </diagram>
</mxfile>